<svg xmlns="http://www.w3.org/2000/svg" width="32" height="32" viewBox="0 0 32 32"><g transform="translate(147.342 -2148.068) scale(.99991)"><path style="line-height:normal;text-indent:0;text-align:start;text-decoration-line:none;text-decoration-style:solid;text-decoration-color:#000;text-transform:none;white-space:normal;isolation:auto;mix-blend-mode:normal;solid-color:#000;solid-opacity:1" fill="#464c63" d="m -131.35352,2150.2782 c -0.6112,0 -1.15305,0.2959 -1.55664,0.711 -0.40358,0.415 -0.6893,0.9548 -0.84179,1.5371 -0.2367,0.9038 -0.0171,1.9673 0.20117,3.0214 0.21821,1.054 0.45133,2.1034 0.41992,2.6993 -0.0174,0.3305 -0.16492,0.9524 -0.31445,1.455 -0.12712,0.4272 -0.21564,0.6699 -0.25,0.7657 -1.02445,0.3382 -1.9899,0.9441 -2.74805,1.9746 a 0.50005,0.50005 0 0 0 -0.0215,0.031 c -0.74458,1.189 -0.77711,2.5531 -0.76172,3.8496 0.0154,1.2966 0.0743,2.5467 -0.29102,3.5801 -0.16048,0.4539 -0.60162,1.2033 -0.99609,1.8008 -0.39447,0.5975 -0.74024,1.0586 -0.74024,1.0586 a 0.50005,0.50005 0 0 0 0.27539,0.7851 c 1.83121,0.4708 3.66069,0.7907 5.48633,0.9473 -0.3477,0.5803 -0.45981,1.2907 -0.26562,1.9707 0.30168,1.0566 1.26269,1.7962 2.36133,1.8145 1.09863,0.018 2.08513,-0.6885 2.42187,-1.7344 0.22076,-0.6856 0.12464,-1.414 -0.21875,-2.0117 1.83433,-0.1299 3.66297,-0.4471 5.48438,-0.9961 a 0.50005,0.50005 0 0 0 0.26953,-0.7598 c 0,0 -0.33334,-0.4885 -0.71289,-1.1172 -0.37956,-0.6286 -0.80357,-1.4106 -0.9668,-1.8906 -0.34907,-1.0264 -0.30817,-2.26 -0.31641,-3.5332 -0.008,-1.2732 -0.0711,-2.6072 -0.80859,-3.7695 a 0.50005,0.50005 0 0 0 -0.0117,-0.018 c -0.63614,-0.915 -1.64296,-1.5587 -2.74219,-1.9395 -0.0249,-0.07 -0.12935,-0.3572 -0.26367,-0.8086 -0.14954,-0.5026 -0.299,-1.1245 -0.3164,-1.455 -0.0314,-0.5958 0.20365,-1.6453 0.42187,-2.6993 0.21822,-1.0541 0.43787,-2.1176 0.20117,-3.0214 -0.15249,-0.5823 -0.44017,-1.1221 -0.84375,-1.5371 -0.40358,-0.4151 -0.94348,-0.711 -1.55469,-0.711 z" color="#000" enable-background="accumulate" font-family="sans-serif" font-weight="400" overflow="visible"/><path style="line-height:normal;text-indent:0;text-align:start;text-decoration-line:none;text-decoration-style:solid;text-decoration-color:#000;text-transform:none;white-space:normal;isolation:auto;mix-blend-mode:normal;solid-color:#000;solid-opacity:1" fill="#36d7b7" d="m -132.22266,2174.5673 c 0.58702,0.024 1.1737,0.029 1.75977,0.016 0.5139,0.3831 0.73481,1.0422 0.53711,1.6563 -0.20309,0.6308 -0.79054,1.052 -1.45313,1.041 -0.66258,-0.011 -1.23601,-0.4507 -1.41797,-1.0879 -0.17503,-0.613 0.0609,-1.2567 0.57422,-1.625 z" color="#000" enable-background="accumulate" font-family="sans-serif" font-weight="400" overflow="visible"/><path style="line-height:normal;text-indent:0;text-align:start;text-decoration-line:none;text-decoration-style:solid;text-decoration-color:#000;text-transform:none;white-space:normal;isolation:auto;mix-blend-mode:normal;solid-color:#000;solid-opacity:1" fill="#f6c864" fill-rule="evenodd" d="m -131.35352,2151.2782 c 0.29172,0 0.57553,0.1384 0.8379,0.4082 0.26234,0.2698 0.48214,0.6676 0.59374,1.0938 0.13678,0.5223 -0.001,1.5319 -0.21484,2.5644 -0.21376,1.0325 -0.48556,2.0808 -0.43945,2.9551 0.0278,0.5267 0.19707,1.1552 0.35547,1.6875 0.0379,0.1273 0.0389,0.118 0.0742,0.2285 -0.41232,-0.071 -0.82464,-0.1135 -1.22461,-0.1113 l -0.002,0 c -0.39056,0 -0.78756,0.03 -1.18359,0.088 0.0325,-0.1028 0.0337,-0.092 0.0684,-0.209 0.15839,-0.5323 0.32965,-1.1608 0.35742,-1.6875 0.0461,-0.8743 -0.22765,-1.9226 -0.44141,-2.9551 -0.21376,-1.0325 -0.34967,-2.0421 -0.21289,-2.5644 0.1116,-0.4262 0.32945,-0.824 0.5918,-1.0938 0.26236,-0.2698 0.54813,-0.4082 0.83984,-0.4082 z" color="#000" enable-background="accumulate" font-family="sans-serif" font-weight="400" overflow="visible"/><path style="line-height:normal;text-indent:0;text-align:start;text-decoration-line:none;text-decoration-style:solid;text-decoration-color:#000;text-transform:none;white-space:normal;isolation:auto;mix-blend-mode:normal;solid-color:#000;solid-opacity:1" fill="#fcc755" fill-rule="evenodd" d="m -131.36914,2161.1083 a 0.50005,0.50005 0 0 0 0.002,0 c 1.56501,-0.01 3.4766,0.7583 4.28321,1.9101 0.55647,0.8848 0.64045,1.9947 0.64843,3.2286 0.008,1.2386 -0.0627,2.5795 0.36914,3.8496 0.22081,0.6493 0.66437,1.431 1.0586,2.084 0.18566,0.3075 0.21454,0.3431 0.34765,0.5488 -4.3859,1.1834 -8.81827,1.0103 -13.31836,-0.047 0.12655,-0.1797 0.14139,-0.1863 0.30079,-0.4277 0.4121,-0.6242 0.87566,-1.3731 1.10351,-2.0176 0.45694,-1.2925 0.36267,-2.6608 0.34766,-3.9258 -0.0149,-1.2569 0.0482,-2.3873 0.60351,-3.2871 1.1043,-1.4877 2.64149,-1.9138 4.25391,-1.916 z" color="#000" enable-background="accumulate" font-family="sans-serif" font-weight="400" overflow="visible"/><path style="line-height:normal;text-indent:0;text-align:start;text-decoration-line:none;text-decoration-style:solid;text-decoration-color:#000;text-transform:none;white-space:normal;isolation:auto;mix-blend-mode:normal;solid-color:#000;solid-opacity:1" fill="#3cb49d" d="m -132.22266,1154.2051 c -0.18528,0.1329 -0.31905,0.3097 -0.42578,0.5 0.56224,0.021 1.1242,0.028 1.68555,0.016 0.5139,0.3831 0.73481,1.0422 0.53711,1.6563 -0.037,0.115 -0.0994,0.2147 -0.16016,0.3144 0.30261,-0.1826 0.54587,-0.4595 0.66016,-0.8144 0.1977,-0.6141 -0.0232,-1.2732 -0.53711,-1.6563 -0.58607,0.013 -1.17275,0.01 -1.75977,-0.016 z" color="#000" enable-background="accumulate" font-family="sans-serif" font-weight="400" overflow="visible" transform="translate(0 1020.362)"/><path style="line-height:normal;text-indent:0;text-align:start;text-decoration-line:none;text-decoration-style:solid;text-decoration-color:#000;text-transform:none;white-space:normal;isolation:auto;mix-blend-mode:normal;solid-color:#000;solid-opacity:1" fill="#d1a953" fill-rule="evenodd" d="M-131.35352 1130.9121c-.29171 0-.57748.1384-.83984.4082-.0744.077-.13335.1825-.19922.2774.17566-.1094.35418-.1856.53906-.1856l0 0c.29172 0 .57552.1384.8379.4082.26233.2698.48214.6676.59374 1.0938.13678.5223-.001 1.5319-.21484 2.5644-.21376 1.0325-.48556 2.0808-.43945 2.9551.0219.4154.13658.8852.25976 1.3301.22207.019.44587.047.66993.086-.0353-.1105-.0363-.1012-.0742-.2285-.1584-.5323-.32767-1.1608-.35547-1.6875-.0461-.8743.22569-1.9226.43945-2.9551.21384-1.0325.35162-2.0421.21484-2.5644-.1116-.4262-.33141-.824-.59374-1.0938-.26238-.2698-.54618-.4082-.8379-.4082zM-131.36914 1140.7461c-1.50351 0-2.93681.3844-4.01953 1.6406 1.00717-.8584 2.23741-1.1389 3.51953-1.1406a.50005.50005 0 00.002 0c1.56501-.01 3.4766.7583 4.28321 1.9101.55647.8848.64045 1.9947.64843 3.2286.008 1.2386-.0627 2.5795.36914 3.8496.22081.6493.66437 1.431 1.0586 2.084.072.1192.0947.1496.13476.2128.23759-.056.47558-.1.71289-.164-.13311-.2057-.16199-.2413-.34765-.5488-.39423-.653-.83779-1.4347-1.0586-2.084-.43184-1.2701-.36114-2.611-.36914-3.8496-.008-1.2339-.092-2.3438-.64843-3.2286-.80661-1.1518-2.7182-1.9201-4.28321-1.9101a.50005.50005 0 00-.002 0z" color="#000" enable-background="accumulate" font-family="sans-serif" font-weight="400" overflow="visible" transform="translate(0 1020.362)"/><path style="line-height:normal;text-indent:0;text-align:start;text-decoration-line:none;text-decoration-style:solid;text-decoration-color:#000;text-transform:none;white-space:normal;isolation:auto;mix-blend-mode:normal;solid-color:#000;solid-opacity:1" fill="#464c63" fill-rule="evenodd" d="m -136.77344,2169.916 a 0.50005,0.50005 0 0 0 -0.0723,0.9883 c 4.00742,0.9085 7.62809,0.7537 10.98437,0 a 0.50035083,0.50035083 0 1 0 -0.21875,-0.9765 c -3.23622,0.7248 -6.68766,0.8745 -10.54492,0 a 0.50005,0.50005 0 0 0 -0.14844,-0.014 z" color="#000" enable-background="accumulate" font-family="sans-serif" font-weight="400" overflow="visible"/><path style="line-height:normal;text-indent:0;text-align:start;text-decoration-line:none;text-decoration-style:solid;text-decoration-color:#000;text-transform:none;white-space:normal;isolation:auto;mix-blend-mode:normal;solid-color:#000;solid-opacity:1" fill="#464c63" d="m -131.16406,2174.8184 a 0.50005,0.50005 0 0 0 -0.28906,0.914 c 0.092,0.064 0.12556,0.1762 0.082,0.2793 a 0.50005,0.50005 0 1 0 0.91992,0.3887 c 0.22523,-0.5335 0.0442,-1.1602 -0.43164,-1.4902 a 0.50005,0.50005 0 0 0 -0.28125,-0.092 z" color="#000" enable-background="accumulate" font-family="sans-serif" font-weight="400" overflow="visible"/></g></svg>