<?xml version="1.0" encoding="UTF-8" standalone="no"?>
<!-- Created with Inkscape (http://www.inkscape.org/) -->
<svg xmlns:inkscape="http://www.inkscape.org/namespaces/inkscape" xmlns:rdf="http://www.w3.org/1999/02/22-rdf-syntax-ns#" xmlns="http://www.w3.org/2000/svg" xmlns:cc="http://web.resource.org/cc/" xmlns:xlink="http://www.w3.org/1999/xlink" xmlns:dc="http://purl.org/dc/elements/1.1/" xmlns:svg="http://www.w3.org/2000/svg" xmlns:sodipodi="http://sodipodi.sourceforge.net/DTD/sodipodi-0.dtd" xmlns:ns1="http://sozi.baierouge.fr" id="svg2" viewBox="0 0 462.86 1306.6" version="1.0" inkscape:version="0.91 r13725">
  <defs id="defs4">
    <linearGradient id="linearGradient24284">
      <stop id="stop24286" style="stop-color:#000000" offset="0"/>
      <stop id="stop24288" style="stop-color:#000000;stop-opacity:0" offset="1"/>
    </linearGradient>
    <linearGradient id="linearGradient22300">
      <stop id="stop22302" style="stop-color:#eeeeec" offset="0"/>
      <stop id="stop22304" style="stop-color:#eeeeec;stop-opacity:0" offset="1"/>
    </linearGradient>
    <linearGradient id="linearGradient11451">
      <stop id="stop11453" style="stop-color:#dfdfdf" offset="0"/>
      <stop id="stop12428" style="stop-color:#c0c2be" offset=".5"/>
      <stop id="stop11455" style="stop-color:#7b7b7b" offset="1"/>
    </linearGradient>
    <filter id="filter7353" y="-.15374" width="1.4232" x="-.21159" height="1.3075">
      <feGaussianBlur id="feGaussianBlur7355" stdDeviation="32.008883" inkscape:collect="always"/>
    </filter>
    <mask id="mask7359">
      <path id="path7361" style="filter:url(#filter7353);fill:#eeeeec" d="m288.91 168.47v0.03l-3.19 0.03c-28.12 0.41-54.39 8.48-76.88 22.22 12.99-3.85 26.7-6.01 40.88-6.22l3.19-0.03v-0.03h0.9 0.91v0.03l3.19 0.03c84.7 1.22 152.51 71.98 151.31 157.72-0.62 44.25 1.3 73.2 14.37 117.56 5.52 18.74 17.5 39.95 28.57 61.1 10.71 20.48 20.68 40.9 22.46 60.31h0.79v3.66c5.65-0.8 10.66-1.66 15-2.54 5.65-1.14 10.08-2.33 13.53-3.78 1.72-0.72 3.22-1.47 4.59-2.62 1.37-1.16 2.88-3.11 2.88-5.72v-5h-0.79c-1.78-19.41-11.75-39.83-22.46-60.31-11.07-21.15-23.05-42.36-28.57-61.1-13.07-44.36-14.99-73.31-14.37-117.56 1.2-85.74-66.61-156.5-151.31-157.72l-3.19-0.03v-0.03h-0.91-0.9z"/>
    </mask>
    <filter id="filter8500" y="-.19151" width="1.8122" x="-.40609" height="1.383">
      <feGaussianBlur id="feGaussianBlur8502" stdDeviation="30.228382" inkscape:collect="always"/>
    </filter>
    <filter id="filter21295">
      <feGaussianBlur id="feGaussianBlur21297" stdDeviation="3.3634418" inkscape:collect="always"/>
    </filter>
    <mask id="mask21301">
      <path id="path21303" style="filter:url(#filter21295);fill:#ffffff" d="m238.78 480.41c24.07 11.6 40.5 34.73 40.5 61.34 0 38.25-33.92 69.28-75.72 69.28-8.84 0-17.3-1.42-25.18-3.97 10.52 5.07 22.47 7.97 35.18 7.97 41.8 0 75.72-31.03 75.72-69.28 0-30.16-21.09-55.83-50.5-65.34z" transform="matrix(.86792 0 0 .93814 -159.65 -188.81)"/>
    </mask>
    <linearGradient id="linearGradient24657" y2="-432.46" xlink:href="#linearGradient24284" gradientUnits="userSpaceOnUse" x2="221.73" y1="-432.46" x1="244.67"/>
    <linearGradient id="linearGradient24659" y2="-432.46" xlink:href="#linearGradient22300" gradientUnits="userSpaceOnUse" x2="221.73" y1="-432.46" x1="204.61"/>
    <linearGradient id="linearGradient24661" y2="-2.7299" xlink:href="#linearGradient11451" gradientUnits="userSpaceOnUse" x2="242.29" y1="-2.7299" x1="201.67"/>
    <radialGradient id="radialGradient24753" xlink:href="#linearGradient22300" gradientUnits="userSpaceOnUse" cy="323.17" cx="25.714" gradientTransform="matrix(.20535 -.14396 .20256 .33758 -45.029 217.78)" r="65.714"/>
    <linearGradient id="linearGradient24755" y2="497.09" xlink:href="#linearGradient11451" spreadMethod="reflect" gradientUnits="userSpaceOnUse" x2="102.3" y1="325.15" x1="-88.335"/>
    <linearGradient id="linearGradient24757" y2="299.05" xlink:href="#linearGradient11451" spreadMethod="reflect" gradientUnits="userSpaceOnUse" x2="11.456" y1="341.26" x1="8.3558"/>
    <linearGradient id="linearGradient24759" y2="331.21" gradientUnits="userSpaceOnUse" x2="25.714" y1="291.67" x1="25.714">
      <stop id="stop22278" style="stop-color:#2e3436" offset="0"/>
      <stop id="stop22280" style="stop-color:#2e3436;stop-opacity:0" offset="1"/>
    </linearGradient>
    <linearGradient id="linearGradient24761" y2="405.62" xlink:href="#linearGradient11451" spreadMethod="reflect" gradientUnits="userSpaceOnUse" x2="656.86" gradientTransform="matrix(1,0,0,-1,0,786.25)" y1="315.29" x1="226.24"/>
    <linearGradient id="linearGradient24763" y2="419.42" gradientUnits="userSpaceOnUse" x2="228.28" gradientTransform="matrix(1 0 0 -1 -68.531 593.78)" y1="381.12" x1="68.531">
      <stop id="stop5120" style="stop-color:#eeeeec" offset="0"/>
      <stop id="stop5122" style="stop-color:#eeeeec;stop-opacity:0" offset="1"/>
    </linearGradient>
    <radialGradient id="radialGradient24765" xlink:href="#linearGradient22300" gradientUnits="userSpaceOnUse" cy="155.9" cx="58.182" gradientTransform="matrix(1 0 0 1.1833 0 -28.582)" r="45.933"/>
  </defs>
  <g id="layer6" transform="translate(9.1168 10)">
    <path id="path24297" style="fill:#2e3436" d="m222.16-10c-13.15 2.4157-19.17 17.313-19.47 29.305-11.78 94.605-5.06 190.08-5.17 285.1 2.93 119.37 3.21 239.02-7.16 358.07-2 48.32-0.5 96.8 4.58 144.91-78.08 11-141.19 85.9-138.38 164.84 1.5 54.98-5.572 112.38-33.841 160.48-14.73 28.3-33.491 57.9-31.719 91.1 4.8662 12 19.724 13.7 30.825 16 36.575 7.2 74.117 7.6 111.08 11.5 9.43 4.6 11.69 16.1 20.2 21.9 32.8 30.5 89.89 32.1 122.09-0.2 6.75-6.3 12.39-13.8 16.69-22 52.13-3.7 106.41-0.5 155.78-20 9.53-10.1 6.16-25.5 1.38-37-15.48-49.5-51.83-91.6-57.48-144.4-8.45-46.9 2.19-96.91-16.58-141.83-21.27-50.84-68.25-90.18-122.7-99.96-4.38-28.94 4.14-57.87 2.45-86.9 1.73-110.78-9.4-221.46-3.96-332.22 1.29-124.24 6.85-249.24-8.91-372.79-2.47-10.246-7.04-25.011-19.7-25.9z"/>
  </g>
  <g id="layer5" transform="translate(9.6581 825.65)">
    <path id="path23311" style="fill:#8f5902" d="m238.09-11.052c15.31-100.11-1.25-226.5 1.3-354.04 4.56-228.9 5.24-449.76-17.33-450.56-23.66-0.84-16.35 220.82-12.85 449.52 1.98 129.81-21.9 253.29-3.28 355.84l32.16-0.762z"/>
    <path id="path23313" style="opacity:.54110;fill:url(#linearGradient24657)" d="m238.09-11.052c15.31-100.11-1.25-226.5 1.3-354.04 4.56-228.9 5.24-449.76-17.33-450.56-23.66-0.84-16.35 220.82-12.85 449.52 1.98 129.81-21.9 253.29-3.28 355.84l32.16-0.762z"/>
    <path id="path24292" style="opacity:.54110;fill:url(#linearGradient24659)" d="m238.09-11.052c15.31-100.11-1.25-226.5 1.3-354.04 4.56-228.9 5.24-449.76-17.33-450.56-23.66-0.84-16.35 220.82-12.85 449.52 1.98 129.81-21.9 253.29-3.28 355.84l32.16-0.762z"/>
    <rect id="rect22332" style="fill:url(#linearGradient24661)" ry="18.348" height="46.705" width="40.613" y="-26.082" x="201.67"/>
    <path id="path24361" style="fill:#8f5902" d="m238.09-11.052c15.31-100.11-1.25-226.5 1.3-354.04 4.56-228.9 5.24-449.76-17.33-450.56-23.66-0.84-16.35 220.82-12.85 449.52 1.98 129.81-21.9 253.29-3.28 355.84l32.16-0.762z"/>
    <path id="path24363" style="opacity:.54110;fill:url(#linearGradient24657)" d="m238.09-11.052c15.31-100.11-1.25-226.5 1.3-354.04 4.56-228.9 5.24-449.76-17.33-450.56-23.66-0.84-16.35 220.82-12.85 449.52 1.98 129.81-21.9 253.29-3.28 355.84l32.16-0.762z"/>
    <path id="path24365" style="opacity:.54110;fill:url(#linearGradient24659)" d="m238.09-11.052c15.31-100.11-1.25-226.5 1.3-354.04 4.56-228.9 5.24-449.76-17.33-450.56-23.66-0.84-16.35 220.82-12.85 449.52 1.98 129.81-21.9 253.29-3.28 355.84l32.16-0.762z"/>
    <rect id="rect24367" style="fill:url(#linearGradient24661)" ry="18.348" height="46.705" width="40.613" y="-26.082" x="201.67"/>
    <path id="path24369" style="fill:#8f5902" d="m238.09-11.052c15.31-100.11-1.25-226.5 1.3-354.04 4.56-228.9 5.24-449.76-17.33-450.56-23.66-0.84-16.35 220.82-12.85 449.52 1.98 129.81-21.9 253.29-3.28 355.84l32.16-0.762z"/>
    <path id="path24371" style="opacity:.54110;fill:url(#linearGradient24657)" d="m238.09-11.052c15.31-100.11-1.25-226.5 1.3-354.04 4.56-228.9 5.24-449.76-17.33-450.56-23.66-0.84-16.35 220.82-12.85 449.52 1.98 129.81-21.9 253.29-3.28 355.84l32.16-0.762z"/>
    <path id="path24373" style="opacity:.54110;fill:url(#linearGradient24659)" d="m238.09-11.052c15.31-100.11-1.25-226.5 1.3-354.04 4.56-228.9 5.24-449.76-17.33-450.56-23.66-0.84-16.35 220.82-12.85 449.52 1.98 129.81-21.9 253.29-3.28 355.84l32.16-0.762z"/>
    <rect id="rect24375" style="fill:url(#linearGradient24661)" ry="18.348" height="46.705" width="40.613" y="-26.082" x="201.67"/>
    <path id="path24377" style="fill:#8f5902" d="m238.09-11.052c15.31-100.11-1.25-226.5 1.3-354.04 4.56-228.9 5.24-449.76-17.33-450.56-23.66-0.84-16.35 220.82-12.85 449.52 1.98 129.81-21.9 253.29-3.28 355.84l32.16-0.762z"/>
    <path id="path24379" style="opacity:.54110;fill:url(#linearGradient24657)" d="m238.09-11.052c15.31-100.11-1.25-226.5 1.3-354.04 4.56-228.9 5.24-449.76-17.33-450.56-23.66-0.84-16.35 220.82-12.85 449.52 1.98 129.81-21.9 253.29-3.28 355.84l32.16-0.762z"/>
    <path id="path24381" style="opacity:.54110;fill:url(#linearGradient24659)" d="m238.09-11.052c15.31-100.11-1.25-226.5 1.3-354.04 4.56-228.9 5.24-449.76-17.33-450.56-23.66-0.84-16.35 220.82-12.85 449.52 1.98 129.81-21.9 253.29-3.28 355.84l32.16-0.762z"/>
    <rect id="rect24383" style="fill:url(#linearGradient24661)" ry="18.348" height="46.705" width="40.613" y="-26.082" x="201.67"/>
    <path id="path24417" style="fill:#8f5902" d="m238.09-11.052c15.31-100.11-1.25-226.5 1.3-354.04 4.56-228.9 5.24-449.76-17.33-450.56-23.66-0.84-16.35 220.82-12.85 449.52 1.98 129.81-21.9 253.29-3.28 355.84l32.16-0.762z"/>
    <path id="path24419" style="opacity:.54110;fill:url(#linearGradient24657)" d="m238.09-11.052c15.31-100.11-1.25-226.5 1.3-354.04 4.56-228.9 5.24-449.76-17.33-450.56-23.66-0.84-16.35 220.82-12.85 449.52 1.98 129.81-21.9 253.29-3.28 355.84l32.16-0.762z"/>
    <path id="path24421" style="opacity:.54110;fill:url(#linearGradient24659)" d="m238.09-11.052c15.31-100.11-1.25-226.5 1.3-354.04 4.56-228.9 5.24-449.76-17.33-450.56-23.66-0.84-16.35 220.82-12.85 449.52 1.98 129.81-21.9 253.29-3.28 355.84l32.16-0.762z"/>
    <rect id="rect24423" style="fill:url(#linearGradient24661)" ry="18.348" height="46.705" width="40.613" y="-26.082" x="201.67"/>
    <path id="path24425" style="fill:#8f5902" d="m238.09-11.052c15.31-100.11-1.25-226.5 1.3-354.04 4.56-228.9 5.24-449.76-17.33-450.56-23.66-0.84-16.35 220.82-12.85 449.52 1.98 129.81-21.9 253.29-3.28 355.84l32.16-0.762z"/>
    <path id="path24427" style="opacity:.54110;fill:url(#linearGradient24657)" d="m238.09-11.052c15.31-100.11-1.25-226.5 1.3-354.04 4.56-228.9 5.24-449.76-17.33-450.56-23.66-0.84-16.35 220.82-12.85 449.52 1.98 129.81-21.9 253.29-3.28 355.84l32.16-0.762z"/>
    <path id="path24429" style="opacity:.54110;fill:url(#linearGradient24659)" d="m238.09-11.052c15.31-100.11-1.25-226.5 1.3-354.04 4.56-228.9 5.24-449.76-17.33-450.56-23.66-0.84-16.35 220.82-12.85 449.52 1.98 129.81-21.9 253.29-3.28 355.84l32.16-0.762z"/>
    <rect id="rect24431" style="fill:url(#linearGradient24661)" ry="18.348" height="46.705" width="40.613" y="-26.082" x="201.67"/>
    <path id="path24433" style="fill:#8f5902" d="m238.09-11.052c15.31-100.11-1.25-226.5 1.3-354.04 4.56-228.9 5.24-449.76-17.33-450.56-23.66-0.84-16.35 220.82-12.85 449.52 1.98 129.81-21.9 253.29-3.28 355.84l32.16-0.762z"/>
    <path id="path24435" style="opacity:.54110;fill:url(#linearGradient24657)" d="m238.09-11.052c15.31-100.11-1.25-226.5 1.3-354.04 4.56-228.9 5.24-449.76-17.33-450.56-23.66-0.84-16.35 220.82-12.85 449.52 1.98 129.81-21.9 253.29-3.28 355.84l32.16-0.762z"/>
    <path id="path24437" style="opacity:.54110;fill:url(#linearGradient24659)" d="m238.09-11.052c15.31-100.11-1.25-226.5 1.3-354.04 4.56-228.9 5.24-449.76-17.33-450.56-23.66-0.84-16.35 220.82-12.85 449.52 1.98 129.81-21.9 253.29-3.28 355.84l32.16-0.762z"/>
    <rect id="rect24439" style="fill:url(#linearGradient24661)" ry="18.348" height="46.705" width="40.613" y="-26.082" x="201.67"/>
    <path id="path24441" style="fill:#8f5902" d="m238.09-11.052c15.31-100.11-1.25-226.5 1.3-354.04 4.56-228.9 5.24-449.76-17.33-450.56-23.66-0.84-16.35 220.82-12.85 449.52 1.98 129.81-21.9 253.29-3.28 355.84l32.16-0.762z"/>
    <path id="path24443" style="opacity:.54110;fill:url(#linearGradient24657)" d="m238.09-11.052c15.31-100.11-1.25-226.5 1.3-354.04 4.56-228.9 5.24-449.76-17.33-450.56-23.66-0.84-16.35 220.82-12.85 449.52 1.98 129.81-21.9 253.29-3.28 355.84l32.16-0.762z"/>
    <path id="path24445" style="opacity:.54110;fill:url(#linearGradient24659)" d="m238.09-11.052c15.31-100.11-1.25-226.5 1.3-354.04 4.56-228.9 5.24-449.76-17.33-450.56-23.66-0.84-16.35 220.82-12.85 449.52 1.98 129.81-21.9 253.29-3.28 355.84l32.16-0.762z"/>
    <rect id="rect24447" style="fill:url(#linearGradient24661)" ry="18.348" height="46.705" width="40.613" y="-26.082" x="201.67"/>
    <path id="path24449" style="fill:#8f5902" d="m238.09-11.052c15.31-100.11-1.25-226.5 1.3-354.04 4.56-228.9 5.24-449.76-17.33-450.56-23.66-0.84-16.35 220.82-12.85 449.52 1.98 129.81-21.9 253.29-3.28 355.84l32.16-0.762z"/>
    <path id="path24451" style="opacity:.54110;fill:url(#linearGradient24657)" d="m238.09-11.052c15.31-100.11-1.25-226.5 1.3-354.04 4.56-228.9 5.24-449.76-17.33-450.56-23.66-0.84-16.35 220.82-12.85 449.52 1.98 129.81-21.9 253.29-3.28 355.84l32.16-0.762z"/>
    <path id="path24453" style="opacity:.54110;fill:url(#linearGradient24659)" d="m238.09-11.052c15.31-100.11-1.25-226.5 1.3-354.04 4.56-228.9 5.24-449.76-17.33-450.56-23.66-0.84-16.35 220.82-12.85 449.52 1.98 129.81-21.9 253.29-3.28 355.84l32.16-0.762z"/>
    <rect id="rect24455" style="fill:url(#linearGradient24661)" ry="18.348" height="46.705" width="40.613" y="-26.082" x="201.67"/>
    <path id="path24457" style="fill:#8f5902" d="m238.09-11.052c15.31-100.11-1.25-226.5 1.3-354.04 4.56-228.9 5.24-449.76-17.33-450.56-23.66-0.84-16.35 220.82-12.85 449.52 1.98 129.81-21.9 253.29-3.28 355.84l32.16-0.762z"/>
    <path id="path24459" style="opacity:.54110;fill:url(#linearGradient24657)" d="m238.09-11.052c15.31-100.11-1.25-226.5 1.3-354.04 4.56-228.9 5.24-449.76-17.33-450.56-23.66-0.84-16.35 220.82-12.85 449.52 1.98 129.81-21.9 253.29-3.28 355.84l32.16-0.762z"/>
    <path id="path24461" style="opacity:.54110;fill:url(#linearGradient24659)" d="m238.09-11.052c15.31-100.11-1.25-226.5 1.3-354.04 4.56-228.9 5.24-449.76-17.33-450.56-23.66-0.84-16.35 220.82-12.85 449.52 1.98 129.81-21.9 253.29-3.28 355.84l32.16-0.762z"/>
    <rect id="rect24463" style="fill:url(#linearGradient24661)" ry="18.348" height="46.705" width="40.613" y="-26.082" x="201.67"/>
    <path id="path24465" style="fill:#8f5902" d="m238.09-11.052c15.31-100.11-1.25-226.5 1.3-354.04 4.56-228.9 5.24-449.76-17.33-450.56-23.66-0.84-16.35 220.82-12.85 449.52 1.98 129.81-21.9 253.29-3.28 355.84l32.16-0.762z"/>
    <path id="path24467" style="opacity:.54110;fill:url(#linearGradient24657)" d="m238.09-11.052c15.31-100.11-1.25-226.5 1.3-354.04 4.56-228.9 5.24-449.76-17.33-450.56-23.66-0.84-16.35 220.82-12.85 449.52 1.98 129.81-21.9 253.29-3.28 355.84l32.16-0.762z"/>
    <path id="path24469" style="opacity:.54110;fill:url(#linearGradient24659)" d="m238.09-11.052c15.31-100.11-1.25-226.5 1.3-354.04 4.56-228.9 5.24-449.76-17.33-450.56-23.66-0.84-16.35 220.82-12.85 449.52 1.98 129.81-21.9 253.29-3.28 355.84l32.16-0.762z"/>
    <rect id="rect24471" style="fill:url(#linearGradient24661)" ry="18.348" height="46.705" width="40.613" y="-26.082" x="201.67"/>
    <path id="path24473" style="fill:#8f5902" d="m238.09-11.052c15.31-100.11-1.25-226.5 1.3-354.04 4.56-228.9 5.24-449.76-17.33-450.56-23.66-0.84-16.35 220.82-12.85 449.52 1.98 129.81-21.9 253.29-3.28 355.84l32.16-0.762z"/>
    <path id="path24475" style="opacity:.54110;fill:url(#linearGradient24657)" d="m238.09-11.052c15.31-100.11-1.25-226.5 1.3-354.04 4.56-228.9 5.24-449.76-17.33-450.56-23.66-0.84-16.35 220.82-12.85 449.52 1.98 129.81-21.9 253.29-3.28 355.84l32.16-0.762z"/>
    <path id="path24477" style="opacity:.54110;fill:url(#linearGradient24659)" d="m238.09-11.052c15.31-100.11-1.25-226.5 1.3-354.04 4.56-228.9 5.24-449.76-17.33-450.56-23.66-0.84-16.35 220.82-12.85 449.52 1.98 129.81-21.9 253.29-3.28 355.84l32.16-0.762z"/>
    <rect id="rect24479" style="fill:url(#linearGradient24661)" ry="18.348" height="46.705" width="40.613" y="-26.082" x="201.67"/>
    <path id="path24481" style="fill:#8f5902" d="m238.09-11.052c15.31-100.11-1.25-226.5 1.3-354.04 4.56-228.9 5.24-449.76-17.33-450.56-23.66-0.84-16.35 220.82-12.85 449.52 1.98 129.81-21.9 253.29-3.28 355.84l32.16-0.762z"/>
    <path id="path24483" style="opacity:.54110;fill:url(#linearGradient24657)" d="m238.09-11.052c15.31-100.11-1.25-226.5 1.3-354.04 4.56-228.9 5.24-449.76-17.33-450.56-23.66-0.84-16.35 220.82-12.85 449.52 1.98 129.81-21.9 253.29-3.28 355.84l32.16-0.762z"/>
    <path id="path24485" style="opacity:.54110;fill:url(#linearGradient24659)" d="m238.09-11.052c15.31-100.11-1.25-226.5 1.3-354.04 4.56-228.9 5.24-449.76-17.33-450.56-23.66-0.84-16.35 220.82-12.85 449.52 1.98 129.81-21.9 253.29-3.28 355.84l32.16-0.762z"/>
    <rect id="rect24487" style="fill:url(#linearGradient24661)" ry="18.348" height="46.705" width="40.613" y="-26.082" x="201.67"/>
    <path id="path24489" style="fill:#8f5902" d="m238.09-11.052c15.31-100.11-1.25-226.5 1.3-354.04 4.56-228.9 5.24-449.76-17.33-450.56-23.66-0.84-16.35 220.82-12.85 449.52 1.98 129.81-21.9 253.29-3.28 355.84l32.16-0.762z"/>
    <path id="path24491" style="opacity:.54110;fill:url(#linearGradient24657)" d="m238.09-11.052c15.31-100.11-1.25-226.5 1.3-354.04 4.56-228.9 5.24-449.76-17.33-450.56-23.66-0.84-16.35 220.82-12.85 449.52 1.98 129.81-21.9 253.29-3.28 355.84l32.16-0.762z"/>
    <path id="path24493" style="opacity:.54110;fill:url(#linearGradient24659)" d="m238.09-11.052c15.31-100.11-1.25-226.5 1.3-354.04 4.56-228.9 5.24-449.76-17.33-450.56-23.66-0.84-16.35 220.82-12.85 449.52 1.98 129.81-21.9 253.29-3.28 355.84l32.16-0.762z"/>
    <rect id="rect24495" style="fill:url(#linearGradient24661)" ry="18.348" height="46.705" width="40.613" y="-26.082" x="201.67"/>
    <path id="path24497" style="fill:#8f5902" d="m238.09-11.052c15.31-100.11-1.25-226.5 1.3-354.04 4.56-228.9 5.24-449.76-17.33-450.56-23.66-0.84-16.35 220.82-12.85 449.52 1.98 129.81-21.9 253.29-3.28 355.84l32.16-0.762z"/>
    <path id="path24499" style="opacity:.54110;fill:url(#linearGradient24657)" d="m238.09-11.052c15.31-100.11-1.25-226.5 1.3-354.04 4.56-228.9 5.24-449.76-17.33-450.56-23.66-0.84-16.35 220.82-12.85 449.52 1.98 129.81-21.9 253.29-3.28 355.84l32.16-0.762z"/>
    <path id="path24501" style="opacity:.54110;fill:url(#linearGradient24659)" d="m238.09-11.052c15.31-100.11-1.25-226.5 1.3-354.04 4.56-228.9 5.24-449.76-17.33-450.56-23.66-0.84-16.35 220.82-12.85 449.52 1.98 129.81-21.9 253.29-3.28 355.84l32.16-0.762z"/>
    <rect id="rect24503" style="fill:url(#linearGradient24661)" ry="18.348" height="46.705" width="40.613" y="-26.082" x="201.67"/>
    <path id="path24505" style="fill:#8f5902" d="m238.09-11.052c15.31-100.11-1.25-226.5 1.3-354.04 4.56-228.9 5.24-449.76-17.33-450.56-23.66-0.84-16.35 220.82-12.85 449.52 1.98 129.81-21.9 253.29-3.28 355.84l32.16-0.762z"/>
    <path id="path24507" style="opacity:.54110;fill:url(#linearGradient24657)" d="m238.09-11.052c15.31-100.11-1.25-226.5 1.3-354.04 4.56-228.9 5.24-449.76-17.33-450.56-23.66-0.84-16.35 220.82-12.85 449.52 1.98 129.81-21.9 253.29-3.28 355.84l32.16-0.762z"/>
    <path id="path24509" style="opacity:.54110;fill:url(#linearGradient24659)" d="m238.09-11.052c15.31-100.11-1.25-226.5 1.3-354.04 4.56-228.9 5.24-449.76-17.33-450.56-23.66-0.84-16.35 220.82-12.85 449.52 1.98 129.81-21.9 253.29-3.28 355.84l32.16-0.762z"/>
    <rect id="rect24511" style="fill:url(#linearGradient24661)" ry="18.348" height="46.705" width="40.613" y="-26.082" x="201.67"/>
  </g>
  <g id="layer4" transform="translate(9.6581 825.65)">
    <path id="path20243" style="fill:url(#radialGradient24753)" d="m91.429 323.17a65.714 65 0 1 1 -131.43 0 65.714 65 0 1 1 131.43 0z" transform="matrix(1.1522 0 0 1.0659 143.94 74.121)"/>
    <path id="path22312" style="fill:url(#linearGradient24755)" d="m442.81 402.04a221.67 37.352 0 1 1 -443.35 0 221.67 37.352 0 1 1 443.35 0z" transform="matrix(1 0 0 .58696 0 168.63)"/>
  </g>
  <g id="layer3" transform="translate(9.6581 825.65)">
    <g id="g2350">
      <path id="path19264" style="fill:url(#linearGradient24757)" d="m91.429 323.17a65.714 65 0 1 1 -131.43 0 65.714 65 0 1 1 131.43 0z" transform="matrix(1.1522 0 0 1.0659 183.94 57.264)"/>
      <path id="path21305" style="fill:url(#linearGradient24759)" d="m91.429 323.17a65.714 65 0 1 1 -131.43 0 65.714 65 0 1 1 131.43 0z" transform="matrix(1.1522 0 0 1.0659 183.94 57.264)"/>
      <path id="path21299" style="opacity:0.348;fill:#2e3436" mask="url(#mask21301)" d="m91.429 323.17a65.714 65 0 1 1 -131.43 0 65.714 65 0 1 1 131.43 0z" transform="matrix(1.1522 0 0 1.0659 183.94 57.264)"/>
    </g>
  </g>
  <g id="layer2" transform="translate(-58.873 657.18)">
    <path id="path3162" style="fill:url(#linearGradient24761)" d="m288.91 168.47v0.03l-3.19 0.03c-84.7 1.22-152.51 71.98-151.31 157.72 0.62 44.25-1.31 73.2-14.38 117.56-5.52 18.74-17.5 39.95-28.561 61.1-11.065 21.15-21.345 42.24-22.625 62.21l-0.094 1.63v0.06c-0.099 0.48-0.188 0.98-0.188 1.41 0 0.18 0.048 0.35 0.063 0.53l-0.094 1.37 0.344 0.04c0.046 0.15 0.101 0.29 0.156 0.43 3.994-11.62 101.53-20.93 221.13-20.93 118.19 0 214.82 9.09 220.93 20.53 0.19-0.61 0.32-1.27 0.32-1.97v-5h-0.79c-1.78-19.41-11.75-39.83-22.46-60.31-11.07-21.15-23.05-42.36-28.57-61.1-13.07-44.36-14.99-73.31-14.37-117.56 1.2-85.74-66.61-156.5-151.31-157.72l-3.19-0.03v-0.03h-0.91-0.9z"/>
    <path id="path4147" style="fill:url(#linearGradient24763)" d="m220.38 0v0.03125l-3.19 0.03125c-84.7 1.2187-152.52 71.976-151.32 157.72 0.625 44.25-1.301 73.2-14.37 117.56-5.519 18.74-17.498 39.95-28.562 61.1-11.065 21.15-21.346 42.24-22.626 62.22l-0.09325 1.62v0.06c-0.09892 0.48-0.1875 0.98-0.1875 1.41 0 0.19 0.04793 0.35 0.0625 0.53l-0.09375 1.38 0.34375 0.03c0.04628 0.15 0.10115 0.29 0.15625 0.43 3.9933-11.62 101.53-20.93 221.12-20.93 118.19 0 214.83 9.1 220.94 20.53 0.19-0.61 0.32-1.27 0.32-1.97v-5h-0.79c-1.78-19.41-11.75-39.83-22.47-60.31-11.06-21.15-23.04-42.36-28.56-61.1-13.07-44.36-14.99-73.31-14.37-117.56 1.2-85.742-66.61-156.5-151.31-157.72l-3.19-0.02875v-0.03125h-0.91-0.9z" transform="translate(68.531 168.47)"/>
    <path id="path8504" style="opacity:0.47;fill:url(#radialGradient24765)" d="m104.12 155.9a45.933 54.354 0 1 1 -91.871 0 45.933 54.354 0 1 1 91.871 0z" transform="translate(157.7 110.24)"/>
    <path id="path7363" style="filter:url(#filter8500);fill:#eeeeec" d="m202.55 221.13c-5.69 16.62-8.66 34.48-8.4 53.06 0.62 44.25-1.31 73.2-14.38 117.56-5.52 18.74-17.5 39.95-28.56 61.1s-21.35 42.25-22.63 62.22l-0.09 1.62v0.06c-0.1 0.48-0.19 0.98-0.19 1.41 0 0.19 0.05 0.35 0.07 0.53l-0.1 1.38 0.35 0.03c0.5 1.64 1.56 2.93 2.56 3.78 1.37 1.16 2.87 1.9 4.59 2.62 3.45 1.45 7.91 2.64 13.56 3.79 11.31 2.29 27.25 4.31 46.94 6 2.11 0.18 4.28 0.35 6.47 0.53 2.18-0.17 4.34-0.35 6.44-0.53 19.69-1.69 35.66-3.71 46.97-6 5.65-1.15 10.08-2.34 13.53-3.79 1.72-0.72 3.22-1.46 4.59-2.62s2.88-3.11 2.88-5.72v-5h-0.78c-1.79-19.4-11.76-39.83-22.47-60.31-11.07-21.15-23.05-42.36-28.57-61.1-13.06-44.36-14.99-73.31-14.37-117.56 0.26-18.58-2.72-36.44-8.41-53.06z"/>
    <path id="path9483" style="opacity:0.47;fill:url(#radialGradient24765)" d="m104.12 155.9a45.933 54.354 0 1 1 -91.871 0 45.933 54.354 0 1 1 91.871 0z" transform="translate(157.7 110.24)"/>
    <path id="path7357" style="opacity:0.47;fill:#2e3436" mask="url(#mask7359)" d="m220.38 0v0.03125l-3.19 0.03125c-84.7 1.2187-152.52 71.976-151.32 157.72 0.625 44.25-1.301 73.2-14.37 117.56-5.519 18.74-17.498 39.95-28.562 61.1-11.065 21.15-21.346 42.24-22.626 62.22l-0.09325 1.62v0.06c-0.09892 0.48-0.1875 0.98-0.1875 1.41 0 0.19 0.04793 0.35 0.0625 0.53l-0.09375 1.38 0.34375 0.03c0.04628 0.15 0.10115 0.29 0.15625 0.43 0.01485-0.04 0.04507-0.08 0.0625-0.12 0.04548-0.11 0.09322-0.23 0.15625-0.34 0.04543-0.08 0.10196-0.17 0.15625-0.25 0.06429-0.1 0.1419-0.19 0.2188-0.29 0.1292-0.15 0.2731-0.31 0.4374-0.46 0.1864-0.18 0.3629-0.39 0.5938-0.57 0.2369-0.18 0.5293-0.35 0.8125-0.53 0.06-0.04 0.1255-0.08 0.1875-0.12 0.1382-0.09 0.2891-0.17 0.4375-0.25 0.1514-0.09 0.3068-0.17 0.4687-0.25 0.2677-0.14 0.5479-0.3 0.8438-0.44 0.0202-0.01 0.0421-0.02 0.0625-0.03 0.2354-0.11 0.4971-0.23 0.75-0.35 0.1463-0.06 0.2854-0.12 0.4375-0.18 0.0912-0.04 0.188-0.09 0.2812-0.13 0.6042-0.25 1.3096-0.5 2-0.75 0.3156-0.11 0.6356-0.2 0.9688-0.31 0.756-0.25 1.561-0.5 2.406-0.75 0.247-0.07 0.496-0.15 0.75-0.22 0.865-0.24 1.768-0.48 2.719-0.72 0.692-0.17 1.419-0.36 2.156-0.53 0.18-0.04 0.349-0.08 0.532-0.12 1.217-0.28 2.478-0.57 3.812-0.85 0.155-0.03 0.312-0.06 0.469-0.09 0.478-0.1 1.008-0.19 1.5-0.28 0.396-0.08 0.782-0.18 1.187-0.25 1.366-0.26 2.782-0.5 4.25-0.75 0.248-0.05 0.5-0.09 0.75-0.13 1.473-0.25 2.992-0.5 4.563-0.75 0.33-0.05 0.666-0.1 1-0.15 1.689-0.26 3.423-0.5 5.219-0.75 2.003-0.28 4.056-0.58 6.187-0.85 2.136-0.27 4.333-0.52 6.594-0.78 2.252-0.26 4.566-0.5 6.937-0.75 4.009-0.42 8.136-0.83 12.469-1.22 0.53-0.04 1.091-0.08 1.625-0.12 1.028-0.09 2.08-0.2 3.125-0.28 1.539-0.13 3.081-0.25 4.656-0.38 1.233-0.1 2.496-0.18 3.75-0.28 1.834-0.14 3.684-0.27 5.563-0.41 2.808-0.2 5.656-0.4 8.566-0.59 4.33-0.28 8.77-0.53 13.31-0.78 0.9-0.05 1.81-0.11 2.72-0.16 1.89-0.1 3.8-0.21 5.72-0.31 4.46-0.22 8.99-0.43 13.62-0.62 0.55-0.03 1.11-0.05 1.66-0.07 2.76-0.11 5.56-0.21 8.37-0.31 0.5-0.02 1.01-0.05 1.5-0.06 1.65-0.06 3.34-0.1 5-0.16 1.7-0.05 3.39-0.1 5.1-0.16 3.03-0.09 6.09-0.17 9.18-0.24 0.36-0.01 0.74-0.03 1.1-0.04 0.76-0.02 1.54-0.04 2.31-0.06 2.71-0.06 5.44-0.1 8.19-0.16 14.13-0.27 28.73-0.43 43.68-0.43 3.7 0 7.36 0.01 11 0.03h0.38c3.52 0.02 7.05 0.03 10.53 0.06h0.72c1.14 0.01 2.27 0.05 3.41 0.06 2.56 0.03 5.12 0.06 7.65 0.1 3.19 0.05 6.36 0.09 9.5 0.15 0.46 0.01 0.92 0.03 1.38 0.03 3.61 0.08 7.17 0.17 10.72 0.26 2.84 0.07 5.67 0.13 8.47 0.21 0.35 0.01 0.71 0.02 1.06 0.03 0.32 0.01 0.64 0.03 0.97 0.04 2.69 0.08 5.32 0.19 7.97 0.28 3.29 0.11 6.55 0.21 9.78 0.34 3.22 0.13 6.38 0.26 9.53 0.41 3.14 0.14 6.25 0.31 9.31 0.47 3.06 0.15 6.09 0.29 9.06 0.46 1.08 0.07 2.18 0.13 3.25 0.19 1.86 0.11 3.72 0.23 5.53 0.35 0.1 0 0.19 0.02 0.28 0.03 2.8 0.18 5.55 0.37 8.26 0.56 2.79 0.2 5.52 0.39 8.21 0.59 0.07 0.01 0.13 0 0.19 0 2.63 0.21 5.22 0.44 7.75 0.66 2.2 0.19 4.35 0.37 6.47 0.56 0.37 0.04 0.76 0.06 1.12 0.1 1.31 0.12 2.63 0.25 3.91 0.37 1.12 0.11 2.28 0.23 3.38 0.35 0.05 0 0.1 0.02 0.15 0.03 2.31 0.23 4.58 0.47 6.78 0.71 4.44 0.5 8.64 1 12.6 1.54 0.06 0 0.12 0.02 0.18 0.03 1.33 0.18 2.67 0.38 3.94 0.56 0.63 0.09 1.29 0.19 1.91 0.28 1.3 0.2 2.61 0.4 3.84 0.59 0.06 0.01 0.13 0.03 0.19 0.04 1.22 0.19 2.41 0.39 3.56 0.59 0.52 0.09 1.09 0.19 1.6 0.28 0.42 0.08 0.89 0.17 1.31 0.25 0.22 0.04 0.43 0.08 0.65 0.13 1.37 0.25 2.71 0.51 3.97 0.78 0.82 0.17 1.61 0.36 2.38 0.53 0.6 0.13 1.24 0.27 1.81 0.4 0.26 0.07 0.5 0.13 0.75 0.19 1.04 0.26 2.06 0.52 3 0.78 1.18 0.33 2.29 0.64 3.31 0.97 1.43 0.46 2.76 0.94 3.88 1.41 0.46 0.19 0.87 0.4 1.28 0.59l0.12 0.06c0.51 0.25 0.97 0.5 1.38 0.76 0.1 0.06 0.22 0.12 0.31 0.18 0.02 0.01 0.05 0.02 0.07 0.03 0.14 0.1 0.27 0.19 0.4 0.29 0.36 0.25 0.67 0.52 0.94 0.78 0.36 0.35 0.65 0.7 0.84 1.06 0.19-0.61 0.32-1.27 0.32-1.97v-5h-0.79c-1.78-19.41-11.75-39.83-22.47-60.31-11.06-21.15-23.04-42.36-28.56-61.1-13.07-44.36-14.99-73.31-14.37-117.56 1.2-85.742-66.61-156.5-151.31-157.72l-3.19-0.02875v-0.03125h-0.91-0.9z" transform="translate(68.531 168.47)"/>
  </g>
  <metadata>
    <rdf:RDF>
      <cc:Work>
        <dc:format>image/svg+xml</dc:format>
        <dc:type rdf:resource="http://purl.org/dc/dcmitype/StillImage"/>
        <cc:license rdf:resource="http://creativecommons.org/licenses/publicdomain/"/>
        <dc:publisher>
          <cc:Agent rdf:about="http://openclipart.org/">
            <dc:title>Openclipart</dc:title>
          </cc:Agent>
        </dc:publisher>
        <dc:title>Bell Silver</dc:title>
        <dc:date>2010-04-14T23:09:47</dc:date>
        <dc:description>A silver bell</dc:description>
        <dc:source>https://openclipart.org/detail/47161/bell-silver-by-hextrust</dc:source>
        <dc:creator>
          <cc:Agent>
            <dc:title>hextrust</dc:title>
          </cc:Agent>
        </dc:creator>
        <dc:subject>
          <rdf:Bag>
            <rdf:li>Accessoires</rdf:li>
            <rdf:li>Chime</rdf:li>
            <rdf:li>Ding</rdf:li>
            <rdf:li>Dong</rdf:li>
            <rdf:li>Golden</rdf:li>
            <rdf:li>Metal</rdf:li>
            <rdf:li>Ring</rdf:li>
            <rdf:li>Servant</rdf:li>
            <rdf:li>Silver</rdf:li>
          </rdf:Bag>
        </dc:subject>
      </cc:Work>
      <cc:License rdf:about="http://creativecommons.org/licenses/publicdomain/">
        <cc:permits rdf:resource="http://creativecommons.org/ns#Reproduction"/>
        <cc:permits rdf:resource="http://creativecommons.org/ns#Distribution"/>
        <cc:permits rdf:resource="http://creativecommons.org/ns#DerivativeWorks"/>
      </cc:License>
    </rdf:RDF>
  </metadata>
</svg>
